<svg xmlns="http://www.w3.org/2000/svg" width="17.096" height="16" viewBox="0 0 17.096 16">
  <path id="send_message" d="M-342.083,1408.037l-15.883-7.393a.6.6,0,0,0-.645.084.605.605,0,0,0-.2.62l1.913,7.238-1.913,7.238a.6.6,0,0,0,.2.62.6.6,0,0,0,.389.142.606.606,0,0,0,.256-.057l15.883-7.394a.605.605,0,0,0,.351-.55A.606.606,0,0,0-342.083,1408.037Zm-15.221,6.847,1.5-5.691h4.868a.606.606,0,0,0,.606-.606.606.606,0,0,0-.606-.606H-355.8l-1.5-5.691,13.529,6.3Z" transform="translate(358.829 -1400.587)" />
</svg>
